<svg width="1280" height="1280" viewBox="0 0 1280 1280" fill="none" xmlns="http://www.w3.org/2000/svg">
<rect width="1280" height="1280" fill="url(#paint0_linear_258_32)" fill-opacity="0.3"/>
<mask id="mask0_258_32" style="mask-type:alpha" maskUnits="userSpaceOnUse" x="0" y="0" width="1280" height="1280">
<rect width="1280" height="1280" fill="url(#paint1_linear_258_32)"/>
</mask>
<g mask="url(#mask0_258_32)">
<g filter="url(#filter0_b_258_32)">
<rect x="1001.08" y="581" width="697.312" height="697.312" rx="74" transform="rotate(45 1001.08 581)" fill="#DCDCDC" fill-opacity="0.69"/>
<rect x="1001.08" y="580.293" width="698.312" height="698.312" rx="74.5" transform="rotate(45 1001.08 580.293)" stroke="white"/>
</g>
<g filter="url(#filter1_b_258_32)">
<rect x="664.303" y="772.472" width="561.844" height="561.844" rx="74" transform="rotate(45 664.303 772.472)" fill="#E9E9E9" fill-opacity="0.72"/>
<rect x="664.303" y="771.765" width="562.844" height="562.844" rx="74.5" transform="rotate(45 664.303 771.765)" stroke="white"/>
</g>
<g filter="url(#filter2_b_258_32)">
<rect x="1001.14" y="862.707" width="498.199" height="498.199" rx="74" transform="rotate(45 1001.14 862.707)" fill="white" fill-opacity="0.22"/>
<rect x="1001.14" y="861.999" width="499.199" height="499.199" rx="74.5" transform="rotate(45 1001.14 861.999)" stroke="white"/>
</g>
<rect x="1000.92" y="1009.06" width="290.909" height="290.909" rx="74" transform="rotate(45 1000.92 1009.06)" fill="#F1F1F1"/>
</g>
<path d="M123.088 778.128C123.309 778.341 123.457 778.617 123.514 778.918C123.57 779.219 123.531 779.53 123.402 779.808L120.796 785.543L123.517 791.224C123.647 791.5 123.689 791.808 123.638 792.109C123.587 792.409 123.446 792.687 123.232 792.905C123.019 793.123 122.744 793.27 122.445 793.327C122.145 793.384 121.835 793.347 121.557 793.223L115.822 790.616L110.141 793.338C109.866 793.468 109.557 793.51 109.256 793.459C108.956 793.408 108.678 793.267 108.46 793.053C108.242 792.84 108.095 792.565 108.038 792.265C107.982 791.966 108.018 791.656 108.142 791.378L110.749 785.643L108.027 779.962C107.898 779.687 107.855 779.378 107.906 779.077C107.957 778.777 108.099 778.499 108.312 778.281C108.525 778.063 108.8 777.916 109.1 777.859C109.399 777.802 109.709 777.839 109.987 777.963L115.722 780.569L121.403 777.848C121.678 777.714 121.988 777.669 122.29 777.719C122.592 777.769 122.871 777.912 123.088 778.128Z" fill="white"/>
<path d="M422.189 899.324C422.393 899.522 422.532 899.778 422.584 900.058C422.636 900.338 422.6 900.627 422.48 900.885L420.058 906.214L422.587 911.493C422.707 911.749 422.747 912.036 422.699 912.316C422.652 912.595 422.521 912.853 422.322 913.055C422.124 913.258 421.869 913.395 421.59 913.447C421.312 913.5 421.024 913.467 420.766 913.351L415.437 910.928L410.157 913.458C409.901 913.578 409.614 913.618 409.335 913.57C409.055 913.523 408.797 913.391 408.595 913.193C408.393 912.995 408.256 912.739 408.203 912.461C408.15 912.183 408.184 911.895 408.299 911.637L410.722 906.308L408.193 901.028C408.072 900.772 408.033 900.485 408.08 900.206C408.127 899.926 408.259 899.668 408.457 899.466C408.656 899.264 408.911 899.127 409.189 899.074C409.468 899.021 409.755 899.055 410.014 899.17L415.344 901.592L420.622 899.064C420.878 898.939 421.166 898.897 421.447 898.944C421.728 898.99 421.987 899.123 422.189 899.324Z" fill="white" fill-opacity="0.7"/>
<path d="M607.399 839.839C607.676 840.106 607.863 840.453 607.933 840.831C608.004 841.209 607.955 841.599 607.793 841.948L604.52 849.15L607.937 856.283C608.1 856.629 608.153 857.017 608.089 857.394C608.025 857.772 607.848 858.121 607.58 858.394C607.312 858.667 606.967 858.852 606.591 858.924C606.215 858.995 605.826 858.95 605.476 858.794L598.275 855.52L591.141 858.937C590.795 859.1 590.407 859.154 590.03 859.09C589.652 859.026 589.304 858.848 589.03 858.58C588.757 858.312 588.572 857.967 588.501 857.591C588.429 857.215 588.475 856.826 588.631 856.477L591.905 849.276L588.487 842.142C588.324 841.796 588.271 841.408 588.335 841.03C588.398 840.653 588.576 840.304 588.844 840.031C589.112 839.757 589.457 839.573 589.833 839.501C590.209 839.43 590.598 839.475 590.948 839.631L598.15 842.904L605.283 839.487C605.628 839.319 606.018 839.262 606.397 839.325C606.776 839.388 607.127 839.568 607.399 839.839Z" fill="white" fill-opacity="0.5"/>
<path d="M753.737 662.182C754.013 662.449 754.2 662.795 754.271 663.173C754.341 663.551 754.292 663.942 754.131 664.291L750.858 671.493L754.274 678.626C754.438 678.972 754.491 679.36 754.427 679.737C754.363 680.115 754.185 680.463 753.917 680.737C753.649 681.01 753.304 681.195 752.928 681.266C752.552 681.338 752.163 681.292 751.814 681.136L744.613 677.862L737.479 681.28C737.133 681.443 736.745 681.496 736.367 681.432C735.99 681.369 735.641 681.191 735.368 680.923C735.094 680.655 734.91 680.31 734.838 679.934C734.767 679.558 734.812 679.169 734.968 678.819L738.242 671.618L734.824 664.485C734.661 664.138 734.608 663.75 734.672 663.373C734.736 662.996 734.914 662.647 735.182 662.373C735.45 662.1 735.795 661.915 736.171 661.844C736.547 661.772 736.936 661.818 737.285 661.974L744.487 665.247L751.62 661.83C751.966 661.661 752.355 661.605 752.734 661.668C753.114 661.731 753.464 661.91 753.737 662.182Z" fill="white"/>
<path d="M1065.09 562.163C1065.28 562.347 1065.4 562.586 1065.45 562.846C1065.5 563.106 1065.47 563.375 1065.36 563.615L1063.1 568.57L1065.46 573.478C1065.57 573.717 1065.6 573.984 1065.56 574.243C1065.52 574.503 1065.39 574.743 1065.21 574.931C1065.03 575.119 1064.79 575.246 1064.53 575.295C1064.27 575.345 1064 575.313 1063.76 575.206L1058.81 572.953L1053.9 575.305C1053.66 575.417 1053.39 575.454 1053.13 575.41C1052.87 575.366 1052.63 575.243 1052.45 575.059C1052.26 574.875 1052.13 574.637 1052.08 574.378C1052.03 574.12 1052.06 573.852 1052.17 573.612L1054.42 568.657L1052.07 563.748C1051.96 563.51 1051.92 563.243 1051.97 562.983C1052.01 562.723 1052.13 562.483 1052.32 562.295C1052.5 562.107 1052.74 561.98 1053 561.931C1053.26 561.882 1053.52 561.913 1053.77 562.02L1058.72 564.273L1063.63 561.921C1063.87 561.805 1064.13 561.766 1064.4 561.81C1064.66 561.853 1064.9 561.977 1065.09 562.163Z" fill="white" fill-opacity="0.4"/>
<path d="M1062.88 226.923C1063.05 227.086 1063.16 227.297 1063.21 227.527C1063.25 227.757 1063.22 227.994 1063.12 228.207L1061.13 232.59L1063.21 236.931C1063.31 237.142 1063.34 237.378 1063.3 237.608C1063.26 237.837 1063.15 238.05 1062.99 238.216C1062.83 238.382 1062.62 238.495 1062.39 238.538C1062.16 238.582 1061.92 238.554 1061.71 238.459L1057.33 236.467L1052.99 238.547C1052.78 238.646 1052.54 238.678 1052.31 238.639C1052.08 238.601 1051.87 238.492 1051.7 238.329C1051.54 238.166 1051.42 237.956 1051.38 237.727C1051.34 237.498 1051.36 237.262 1051.46 237.049L1053.45 232.666L1051.37 228.325C1051.27 228.114 1051.24 227.878 1051.28 227.648C1051.32 227.418 1051.43 227.206 1051.59 227.04C1051.75 226.873 1051.96 226.761 1052.19 226.718C1052.42 226.674 1052.66 226.702 1052.87 226.797L1057.25 228.789L1061.59 226.709C1061.8 226.606 1062.04 226.572 1062.27 226.61C1062.5 226.649 1062.72 226.758 1062.88 226.923Z" fill="white" fill-opacity="0.4"/>
<path d="M990.783 135.991C990.92 136.124 991.013 136.296 991.048 136.484C991.083 136.672 991.059 136.866 990.979 137.039L989.352 140.618L991.05 144.162C991.131 144.334 991.157 144.527 991.126 144.715C991.094 144.902 991.006 145.075 990.872 145.211C990.739 145.347 990.568 145.439 990.381 145.474C990.194 145.51 990.001 145.487 989.827 145.41L986.249 143.783L982.704 145.481C982.532 145.562 982.339 145.589 982.152 145.557C981.964 145.525 981.791 145.437 981.655 145.304C981.519 145.171 981.427 144.999 981.392 144.812C981.356 144.625 981.379 144.432 981.456 144.258L983.083 140.68L981.385 137.135C981.304 136.963 981.278 136.77 981.309 136.583C981.341 136.395 981.429 136.222 981.562 136.086C981.696 135.95 981.867 135.859 982.054 135.823C982.241 135.788 982.434 135.81 982.608 135.888L986.186 137.514L989.731 135.816C989.903 135.732 990.096 135.704 990.285 135.736C990.473 135.767 990.647 135.856 990.783 135.991Z" fill="white" fill-opacity="0.4"/>
<path d="M711.165 285.102C711.386 285.315 711.535 285.592 711.592 285.894C711.648 286.197 711.609 286.509 711.48 286.788L708.864 292.543L711.595 298.243C711.725 298.519 711.767 298.829 711.716 299.131C711.665 299.433 711.523 299.711 711.309 299.93C711.095 300.148 710.819 300.296 710.519 300.353C710.218 300.41 709.907 300.374 709.628 300.249L703.874 297.633L698.173 300.364C697.896 300.494 697.586 300.537 697.285 300.486C696.983 300.435 696.704 300.293 696.486 300.078C696.268 299.864 696.12 299.589 696.063 299.288C696.006 298.988 696.042 298.677 696.167 298.397L698.783 292.643L696.052 286.942C695.921 286.666 695.879 286.356 695.93 286.054C695.981 285.752 696.123 285.474 696.337 285.255C696.551 285.037 696.827 284.889 697.128 284.832C697.428 284.775 697.739 284.811 698.018 284.936L703.773 287.552L709.473 284.821C709.75 284.686 710.061 284.641 710.364 284.691C710.667 284.742 710.947 284.885 711.165 285.102Z" fill="white" fill-opacity="0.3"/>
<path d="M447.737 112.182C448.013 112.449 448.2 112.795 448.271 113.173C448.341 113.551 448.292 113.942 448.131 114.291L444.858 121.493L448.274 128.626C448.438 128.972 448.491 129.36 448.427 129.737C448.363 130.115 448.185 130.463 447.917 130.737C447.649 131.01 447.304 131.195 446.928 131.266C446.552 131.338 446.163 131.292 445.814 131.136L438.613 127.862L431.479 131.28C431.133 131.443 430.745 131.496 430.367 131.432C429.99 131.369 429.641 131.191 429.368 130.923C429.094 130.655 428.91 130.31 428.838 129.934C428.767 129.558 428.812 129.169 428.968 128.819L432.242 121.618L428.824 114.485C428.661 114.138 428.608 113.75 428.672 113.373C428.736 112.996 428.914 112.647 429.182 112.373C429.45 112.1 429.795 111.915 430.171 111.844C430.547 111.772 430.936 111.818 431.285 111.974L438.487 115.247L445.62 111.83C445.966 111.661 446.355 111.605 446.734 111.668C447.114 111.731 447.464 111.91 447.737 112.182Z" fill="white" fill-opacity="0.5"/>
<path d="M83.0705 23.1685C83.2608 23.3521 83.3891 23.5904 83.4376 23.8503C83.4862 24.1102 83.4526 24.3788 83.3414 24.6187L81.091 29.5703L83.4403 34.4746C83.5524 34.7127 83.589 34.9794 83.545 35.2389C83.5011 35.4984 83.3788 35.7382 83.1946 35.9262C83.0104 36.1141 82.7731 36.2412 82.5146 36.2903C82.256 36.3394 81.9886 36.3082 81.7484 36.2009L76.7973 33.9499L71.8924 36.2998C71.6543 36.4119 71.3876 36.4484 71.1281 36.4045C70.8686 36.3606 70.6288 36.2383 70.4409 36.0541C70.2529 35.8699 70.1259 35.6326 70.0767 35.3741C70.0276 35.1155 70.0588 34.8481 70.1661 34.6078L72.4171 29.6568L70.0672 24.7519C69.9551 24.5138 69.9186 24.2471 69.9625 23.9876C70.0064 23.7281 70.1287 23.4883 70.3129 23.3003C70.4971 23.1124 70.7344 22.9853 70.993 22.9362C71.2515 22.8871 71.5189 22.9183 71.7592 23.0256L76.7108 25.276L81.6152 22.9267C81.8528 22.8108 82.1206 22.7718 82.3815 22.8151C82.6423 22.8584 82.8831 22.982 83.0705 23.1685Z" fill="white" fill-opacity="0.7"/>
<path d="M46.7933 187.919C46.9907 188.11 47.1239 188.357 47.1743 188.627C47.2247 188.897 47.1898 189.176 47.0745 189.425L44.7387 194.564L47.1771 199.654C47.2934 199.901 47.3314 200.178 47.2858 200.447C47.2402 200.717 47.1133 200.965 46.9221 201.161C46.7309 201.356 46.4846 201.488 46.2163 201.538C45.9479 201.589 45.6704 201.557 45.421 201.446L40.2823 199.109L35.1915 201.548C34.9444 201.665 34.6676 201.703 34.3982 201.657C34.1289 201.611 33.88 201.485 33.685 201.293C33.4899 201.102 33.358 200.856 33.307 200.588C33.2561 200.319 33.2884 200.042 33.3998 199.792L35.7361 194.654L33.2972 189.563C33.1808 189.316 33.1429 189.039 33.1885 188.77C33.2341 188.5 33.361 188.251 33.5522 188.056C33.7434 187.861 33.9897 187.729 34.258 187.678C34.5263 187.627 34.8039 187.66 35.0533 187.771L40.1926 190.107L45.2828 187.668C45.5294 187.548 45.8074 187.508 46.0781 187.553C46.3488 187.598 46.5988 187.726 46.7933 187.919Z" fill="white" fill-opacity="0.3"/>
<path d="M1236.55 802.659C1236.76 802.856 1236.89 803.113 1236.95 803.393C1237 803.673 1236.96 803.963 1236.84 804.221L1234.42 809.557L1236.95 814.842C1237.07 815.098 1237.11 815.386 1237.06 815.665C1237.01 815.945 1236.88 816.204 1236.68 816.406C1236.49 816.609 1236.23 816.746 1235.95 816.798C1235.67 816.851 1235.38 816.818 1235.13 816.702L1229.79 814.276L1224.5 816.809C1224.25 816.929 1223.96 816.969 1223.68 816.922C1223.4 816.874 1223.14 816.742 1222.94 816.544C1222.74 816.345 1222.6 816.09 1222.55 815.811C1222.5 815.533 1222.53 815.244 1222.64 814.985L1225.07 809.65L1222.54 804.365C1222.42 804.108 1222.38 803.821 1222.43 803.541C1222.47 803.262 1222.6 803.003 1222.8 802.801C1223 802.598 1223.26 802.461 1223.54 802.408C1223.81 802.355 1224.1 802.389 1224.36 802.505L1229.7 804.93L1234.98 802.398C1235.24 802.273 1235.53 802.231 1235.81 802.278C1236.09 802.324 1236.35 802.458 1236.55 802.659Z" fill="white"/>
<path d="M1235.77 497.286C1235.94 497.452 1236.06 497.667 1236.1 497.902C1236.15 498.137 1236.12 498.379 1236.02 498.596L1233.99 503.068L1236.11 507.497C1236.21 507.712 1236.24 507.952 1236.2 508.187C1236.16 508.421 1236.05 508.638 1235.89 508.807C1235.72 508.977 1235.5 509.092 1235.27 509.136C1235.04 509.181 1234.8 509.152 1234.58 509.055L1230.11 507.023L1225.68 509.145C1225.46 509.246 1225.22 509.279 1224.99 509.239C1224.75 509.2 1224.54 509.089 1224.37 508.923C1224.2 508.757 1224.08 508.542 1224.04 508.309C1223.99 508.075 1224.02 507.834 1224.12 507.617L1226.15 503.146L1224.03 498.716C1223.93 498.501 1223.9 498.26 1223.94 498.026C1223.98 497.792 1224.09 497.575 1224.25 497.405C1224.42 497.236 1224.63 497.121 1224.87 497.077C1225.1 497.032 1225.34 497.06 1225.56 497.157L1230.03 499.19L1234.46 497.068C1234.67 496.963 1234.92 496.928 1235.15 496.967C1235.39 497.006 1235.6 497.118 1235.77 497.286Z" fill="white" fill-opacity="0.3"/>
<path d="M336.53 1135.62C336.668 1135.75 336.762 1135.93 336.797 1136.11C336.832 1136.3 336.808 1136.5 336.727 1136.67L335.091 1140.27L336.799 1143.84C336.881 1144.01 336.907 1144.21 336.875 1144.4C336.843 1144.58 336.754 1144.76 336.62 1144.9C336.486 1145.03 336.314 1145.13 336.126 1145.16C335.938 1145.2 335.743 1145.17 335.569 1145.1L331.968 1143.46L328.402 1145.17C328.229 1145.25 328.035 1145.28 327.846 1145.24C327.657 1145.21 327.483 1145.12 327.346 1144.99C327.21 1144.86 327.117 1144.68 327.081 1144.49C327.046 1144.31 327.068 1144.11 327.146 1143.94L328.783 1140.34L327.074 1136.77C326.993 1136.6 326.966 1136.4 326.998 1136.21C327.03 1136.03 327.119 1135.85 327.253 1135.71C327.387 1135.58 327.56 1135.49 327.748 1135.45C327.936 1135.41 328.13 1135.44 328.305 1135.52L331.906 1137.15L335.472 1135.44C335.645 1135.36 335.839 1135.33 336.029 1135.36C336.219 1135.39 336.394 1135.48 336.53 1135.62Z" fill="white" fill-opacity="0.5"/>
<defs>
<filter id="filter0_b_258_32" x="515.763" y="588.752" width="970.645" height="970.645" filterUnits="userSpaceOnUse" color-interpolation-filters="sRGB">
<feFlood flood-opacity="0" result="BackgroundImageFix"/>
<feGaussianBlur in="BackgroundImageFix" stdDeviation="10.95"/>
<feComposite in2="SourceAlpha" operator="in" result="effect1_backgroundBlur_258_32"/>
<feBlend mode="normal" in="SourceGraphic" in2="effect1_backgroundBlur_258_32" result="shape"/>
</filter>
<filter id="filter1_b_258_32" x="270.171" y="775.624" width="788.264" height="788.264" filterUnits="userSpaceOnUse" color-interpolation-filters="sRGB">
<feFlood flood-opacity="0" result="BackgroundImageFix"/>
<feGaussianBlur in="BackgroundImageFix" stdDeviation="13.25"/>
<feComposite in2="SourceAlpha" operator="in" result="effect1_backgroundBlur_258_32"/>
<feBlend mode="normal" in="SourceGraphic" in2="effect1_backgroundBlur_258_32" result="shape"/>
</filter>
<filter id="filter2_b_258_32" x="663.516" y="877.358" width="675.256" height="675.256" filterUnits="userSpaceOnUse" color-interpolation-filters="sRGB">
<feFlood flood-opacity="0" result="BackgroundImageFix"/>
<feGaussianBlur in="BackgroundImageFix" stdDeviation="7.5"/>
<feComposite in2="SourceAlpha" operator="in" result="effect1_backgroundBlur_258_32"/>
<feBlend mode="normal" in="SourceGraphic" in2="effect1_backgroundBlur_258_32" result="shape"/>
</filter>
<linearGradient id="paint0_linear_258_32" x1="1262.34" y1="1280" x2="17.6616" y2="4.00501e-05" gradientUnits="userSpaceOnUse">
<stop stop-color="#1C39BB"/>
<stop offset="1" stop-color="#AFDBF5"/>
</linearGradient>
<linearGradient id="paint1_linear_258_32" x1="8.9275" y1="1.39095e-05" x2="1271.07" y2="1280" gradientUnits="userSpaceOnUse">
<stop stop-color="#303030"/>
<stop offset="1" stop-color="#6B6B6B"/>
</linearGradient>
</defs>
</svg>
