<svg width="57" height="57" viewBox="0 0 57 57" fill="none" xmlns="http://www.w3.org/2000/svg">
<path d="M19.53 43.545C18.0576 43.545 16.5027 42.9225 15.2897 41.7106C13.078 39.4989 12.8306 36.1487 14.7375 34.2418C16.6445 32.3349 19.9947 32.5824 22.2064 34.794C24.4181 37.0056 24.6655 40.3558 22.7586 42.2627C21.8976 43.1226 20.742 43.545 19.53 43.545ZM17.9671 33.2089C16.8195 33.2089 15.7282 33.6062 14.9166 34.4189C13.1072 36.2282 13.3556 39.4185 15.4687 41.5315C17.5819 43.6446 20.7732 43.892 22.5815 42.0837C24.3909 40.2743 24.1425 37.0841 22.0294 34.971C20.8647 33.8074 19.3741 33.2089 17.9671 33.2089Z" fill="white"/>
<path d="M20.8808 47.9352C20.6213 47.9352 20.3588 47.9251 20.0933 47.905C17.3616 47.6978 14.7124 46.4406 12.6355 44.3637C10.5586 42.2869 9.30035 39.6387 9.09417 36.9061C8.88698 34.1684 9.75899 31.6742 11.5503 29.8829C13.3415 28.0917 15.8358 27.2197 18.5736 27.4269C21.3052 27.634 23.9544 28.8912 26.0313 30.9681C30.323 35.2597 30.8098 41.7558 27.1166 45.4489C25.4993 47.0672 23.3067 47.9352 20.8808 47.9352ZM17.787 27.5989C15.4134 27.5989 13.2721 28.4467 11.6931 30.0257C9.94405 31.7747 9.09317 34.2127 9.29533 36.891C9.49849 39.5753 10.7356 42.1782 12.7783 44.2209C14.821 46.2636 17.425 47.5007 20.1084 47.7038C22.7867 47.906 25.2247 47.0551 26.9737 45.3061C30.5885 41.6914 30.1017 35.323 25.8885 31.1099C23.8458 29.0672 21.2419 27.8302 18.5585 27.627C18.299 27.6089 18.0415 27.5989 17.787 27.5989Z" fill="white"/>
<path d="M22.5162 51.6172C18.3694 51.6172 13.9832 49.8612 10.5606 46.4386C7.54428 43.4223 5.7178 39.5774 5.41808 35.6117C5.11736 31.641 6.38161 28.0253 8.9775 25.4284C14.3342 20.0728 23.7593 20.7819 29.988 27.0115C36.2168 33.2401 36.9268 42.666 31.5711 48.0217C29.1583 50.4355 25.9177 51.6172 22.5162 51.6172ZM10.6682 46.332C16.8386 52.5023 26.1681 53.2123 31.4655 47.915C36.7629 42.6178 36.0528 33.2884 29.8824 27.1181C23.712 20.9478 14.3825 20.2378 9.08512 25.535C6.52041 28.0997 5.27225 31.6742 5.56895 35.5996C5.86666 39.5301 7.67704 43.3419 10.6682 46.332Z" fill="white"/>
<path d="M24.3557 54.3891C19.0935 54.3891 13.5266 52.1593 9.18268 47.8165C1.27833 39.9123 0.375153 27.9539 7.17013 21.16C13.9641 14.3652 25.9227 15.2683 33.8271 23.1735C41.7314 31.0788 42.6346 43.0361 35.8406 49.83C32.779 52.8905 28.6705 54.3891 24.3557 54.3891ZM18.655 16.7005C14.3664 16.7005 10.283 18.189 7.24154 21.2314C0.485787 27.9861 1.38897 39.8811 9.25409 47.7461C17.1192 55.6111 29.0134 56.5142 35.7692 49.7596C42.524 43.004 41.6218 31.1099 33.7557 23.2449C29.4318 18.9202 23.8911 16.7005 18.655 16.7005Z" fill="white"/>
<path d="M26.4658 56.0284C25.9056 56.0284 25.3404 56.0073 24.7701 55.9641C18.8763 55.5175 13.1625 52.804 8.6798 48.3214C4.19708 43.8387 1.4825 38.1251 1.03695 32.2313C0.590387 26.3356 2.46715 20.9669 6.32126 17.1129C10.1754 13.2588 15.5442 11.3821 21.44 11.8287C27.3338 12.2752 33.0476 14.9887 37.5303 19.4714C42.013 23.954 44.7276 29.6677 45.1732 35.5614C45.6197 41.4571 43.7429 46.8258 39.8888 50.6799C36.4079 54.1608 31.6898 56.0284 26.4658 56.0284ZM19.7634 11.8498C14.7325 11.8498 9.94204 13.5968 6.37356 17.1652C-1.5509 25.0895 -0.492827 39.0423 8.7331 48.2671C13.8042 53.3381 20.3045 55.9409 26.4457 55.9419C31.4766 55.9419 36.2671 54.195 39.8355 50.6265C47.76 42.7022 46.7019 28.7494 37.476 19.5247C32.4049 14.4537 25.9046 11.8498 19.7634 11.8498Z" fill="white"/>
<path d="M28.4884 57C24.6424 57 20.912 56.2467 17.3998 54.7612C14.0074 53.326 10.9609 51.2722 8.34487 48.6563C5.72887 46.0403 3.67408 42.9939 2.23985 39.6015C0.753322 36.0884 0 32.3581 0 28.5121C0 25.7784 0.386216 23.075 1.14859 20.4771C2.17649 17.828 3.70224 15.4815 5.68461 13.4992C7.8782 11.3057 10.5073 9.67735 13.4964 8.65952C16.384 7.6769 19.4848 7.30276 22.7143 7.54716C25.9428 7.79156 29.1361 8.64243 32.2058 10.0756C35.384 11.5591 38.2897 13.6058 40.8413 16.1584C43.3939 18.711 45.4397 21.6156 46.9242 24.7938C48.3574 27.8634 49.2083 31.0566 49.4527 34.2851C49.6971 37.5136 49.323 40.6153 48.3403 43.5028C47.3235 46.4929 45.6951 49.1209 43.5006 51.3145C41.5182 53.2968 39.1717 54.8226 36.5245 55.8494L36.5225 55.8504C33.9256 56.6128 31.2221 57 28.4884 57ZM20.8275 7.53811C15.1509 7.53811 9.74692 9.50838 5.72082 13.5354C3.74348 15.5127 2.22175 17.8541 1.19687 20.4942C0.436504 23.086 0.0502885 25.7845 0.0502885 28.5131C0.0502885 44.1938 12.8075 56.9507 28.4884 56.9507C31.2171 56.9507 33.9156 56.5645 36.5084 55.8042C39.1486 54.7793 41.489 53.2576 43.4664 51.2813C47.7962 46.9515 49.9053 40.917 49.4034 34.2911C48.9015 27.6632 45.849 21.2375 40.8071 16.1956C35.0873 10.4749 27.7542 7.53811 20.8275 7.53811Z" fill="white"/>
<path d="M28.4884 57C24.6424 57 20.912 56.2467 17.3998 54.7612C14.0074 53.326 10.9609 51.2722 8.34487 48.6563C5.72887 46.0403 3.67408 42.9939 2.23985 39.6015C0.753322 36.0884 0 32.3581 0 28.5121C0 22.5741 1.80837 16.8846 5.23 12.057C5.57901 11.6537 5.94611 11.2584 6.32227 10.8822C8.68985 8.5147 11.512 6.74457 14.7114 5.62115C17.8011 4.53594 21.1111 4.09542 24.5488 4.31266C27.9866 4.52991 31.378 5.39385 34.6307 6.88035C37.998 8.41915 41.0666 10.5614 43.753 13.2468C49.7393 19.233 53.0091 27.1895 52.7245 35.0776C52.4851 41.7085 49.7222 47.6354 44.9448 51.7681L44.9428 51.7701C40.1161 55.1917 34.4255 57 28.4884 57ZM22.8461 4.30864C16.4564 4.30864 10.6541 6.62187 6.35848 10.9174C5.98333 11.2926 5.61723 11.6868 5.27023 12.0871C1.85565 16.9047 0.0502885 22.5852 0.0502885 28.5121C0.0502885 44.1928 12.8075 56.9497 28.4884 56.9497C34.4154 56.9497 40.095 55.1444 44.9137 51.7299C49.679 47.6063 52.4358 41.6925 52.6742 35.0766C52.9588 27.2026 49.6941 19.2591 43.7178 13.283C38.4124 7.97763 31.6033 4.80951 24.5468 4.36295C23.9766 4.32675 23.4083 4.30864 22.8461 4.30864Z" fill="white"/>
<path d="M28.4884 57C24.6424 57 20.912 56.2467 17.3998 54.7612C14.0074 53.326 10.9609 51.2722 8.34487 48.6563C5.72887 46.0403 3.67408 42.9939 2.23985 39.6015C0.753322 36.0884 0 32.3581 0 28.5121C0 23.9268 1.1154 19.3698 3.2245 15.3337C5.26621 11.4274 8.23826 7.99473 11.8198 5.40693C14.5344 3.86109 17.4763 2.78191 20.567 2.19657C23.6084 1.62027 26.7163 1.5378 29.804 1.95116C32.9229 2.36855 35.9372 3.27976 38.7634 4.66267C41.6872 6.09184 44.3504 7.99674 46.6778 10.3241C49.0051 12.6514 50.9101 15.3136 52.3393 18.2383C53.7212 21.0645 54.6334 24.0797 55.0508 27.1976C55.4632 30.2842 55.3807 33.392 54.8044 36.4344C54.219 39.5241 53.1399 42.4669 51.595 45.1794C49.0061 48.7629 45.5734 51.7349 41.666 53.7766C37.6309 55.8846 33.0737 57 28.4884 57ZM25.9056 1.74599C21.0699 1.74599 16.2231 2.95792 11.848 5.44917C4.4616 10.7867 0.0502885 19.409 0.0502885 28.5121C0.0502885 44.1928 12.8075 56.9497 28.4884 56.9497C37.5917 56.9497 46.2141 52.5395 51.5528 45.1512C57.9354 33.9411 55.9168 19.6333 46.6416 10.3592C40.9871 4.7039 33.46 1.74599 25.9056 1.74599Z" fill="white"/>
<path d="M28.4884 57C24.6424 57 20.912 56.2467 17.3998 54.7612C14.0074 53.326 10.9609 51.2722 8.34487 48.6563C5.72887 46.0403 3.67408 42.9939 2.23985 39.6015C0.753322 36.0884 0 32.3581 0 28.5121C0 25.1871 0.567254 21.9304 1.68668 18.8317C2.76788 15.8376 4.33789 13.0597 6.35345 10.5765C8.35091 8.11441 10.7245 6.01541 13.4079 4.33781C16.1426 2.62803 19.1207 1.40705 22.2597 0.706041C26.8752 -0.0140779 31.6295 0.322848 36.0106 1.67961C40.6029 3.10174 44.6552 5.54572 48.0527 8.94415C51.4421 12.3335 53.8831 16.3747 55.3073 20.9538C56.6631 25.3138 57.008 30.0479 56.305 34.6441L56.3131 34.6462L56.308 34.6703C54.9331 40.906 51.4321 46.5714 46.4495 50.6235C43.9642 52.6451 41.1833 54.2201 38.1841 55.3053C35.0813 56.4297 31.8185 57 28.4884 57ZM27.1317 0.377158C25.5254 0.377158 23.9021 0.50288 22.2698 0.757335C9.3959 3.62775 0.0502885 15.3005 0.0502885 28.5121C0.0502885 44.1928 12.8075 56.9497 28.4884 56.9497C41.7254 56.9497 53.3983 47.5882 56.2547 34.6854L56.2497 34.6844L56.2537 34.6612C57.7312 25.0513 54.729 15.6917 48.0185 8.98137C42.4284 3.3924 35.0058 0.377158 27.1317 0.377158Z" fill="white"/>
<path d="M28.4884 57C24.6424 57 20.912 56.2467 17.3998 54.7612C14.0074 53.326 10.9609 51.2722 8.34487 48.6563C5.72887 46.0403 3.67408 42.9939 2.23985 39.6015C0.753322 36.0884 0 32.3581 0 28.5121C0 24.6661 0.753322 20.9357 2.23884 17.4237C3.67408 14.0312 5.72786 10.9848 8.34387 8.36887C10.9599 5.7529 14.0064 3.69815 17.3988 2.26395C20.911 0.778453 24.6414 0.0251438 28.4874 0.0251438C32.3335 0.0251438 36.0639 0.778453 39.576 2.26395C42.9685 3.69916 46.015 5.7529 48.631 8.36887C51.247 10.9848 53.3018 14.0312 54.736 17.4237C56.2215 20.9357 56.9749 24.6661 56.9749 28.5121C56.9749 32.3581 56.2215 36.0884 54.736 39.6005C53.3008 42.9929 51.247 46.0393 48.631 48.6553C46.015 51.2712 42.9685 53.326 39.576 54.7602C36.0649 56.2467 32.3345 57 28.4884 57ZM28.4884 0.0744247C12.8075 0.0744247 0.0502885 12.8314 0.0502885 28.5121C0.0502885 44.1928 12.8075 56.9497 28.4884 56.9497C44.1694 56.9497 56.9266 44.1928 56.9266 28.5121C56.9256 12.8314 44.1684 0.0744247 28.4884 0.0744247Z" fill="white"/>
<path d="M39.0148 24.1944C38.877 24.1944 38.7392 24.1893 38.5984 24.1783C37.1612 24.0697 35.7702 23.4089 34.68 22.3197C32.42 20.0597 32.1716 16.6291 34.1278 14.6729C36.084 12.7167 39.5137 12.9641 41.7747 15.2251C44.0346 17.485 44.283 20.9156 42.3268 22.8718C41.4669 23.7327 40.3022 24.1944 39.0148 24.1944ZM37.4468 13.8552C36.3324 13.8552 35.2724 14.2404 34.4848 15.029C32.7247 16.789 32.9722 19.8998 35.037 21.9646C36.0418 22.9694 37.3211 23.5778 38.6377 23.6774C39.9401 23.776 41.1249 23.3636 41.9718 22.5168C43.7319 20.7567 43.4845 17.6459 41.4196 15.5811C40.2801 14.4416 38.8207 13.8552 37.4468 13.8552Z" fill="white"/>
<path d="M39.1808 29.7461C36.2912 29.7461 33.2377 28.5251 30.857 26.1435C28.759 24.0455 27.4877 21.3692 27.2785 18.6064C27.0683 15.8315 27.9534 13.3021 29.7708 11.4847C31.5882 9.66729 34.1177 8.78223 36.8926 8.99243C39.6545 9.20163 42.3319 10.4719 44.4299 12.5709C48.7708 16.9117 49.2576 23.4873 45.5151 27.2287C43.8254 28.9184 41.5584 29.7461 39.1808 29.7461ZM36.0971 9.41585C33.7577 9.41585 31.6466 10.2506 30.0916 11.8055C28.3687 13.5284 27.5309 15.9311 27.7301 18.5722C27.9312 21.2264 29.1553 23.8011 31.1769 25.8237C35.3407 29.9875 41.6298 30.4753 45.1953 26.9089C48.7607 23.3435 48.2739 17.0545 44.1101 12.8907C42.0885 10.8692 39.5137 9.64516 36.8585 9.44401C36.602 9.4249 36.3475 9.41585 36.0971 9.41585Z" fill="white"/>
<path d="M38.9424 35.2908C34.7695 35.2908 30.3572 33.5247 26.9154 30.0831C20.6475 23.8152 19.9374 14.3259 25.3323 8.93007C30.7283 3.53421 40.2167 4.24428 46.4857 10.5131C49.5191 13.5465 51.3556 17.4136 51.6573 21.4044C51.9601 25.4043 50.6858 29.0491 48.0688 31.6661C45.6358 34.1 42.3701 35.2908 38.9424 35.2908ZM34.4466 5.65031C30.9948 5.65031 27.8799 6.88236 25.5828 9.1795C20.3246 14.4376 21.0347 23.7036 27.1658 29.8346C30.1389 32.8076 33.9286 34.6089 37.8341 34.9046C41.7304 35.1993 45.2767 33.9612 47.8203 31.4177C50.3639 28.8741 51.602 25.3279 51.3073 21.4316C51.0116 17.5252 49.2113 13.7366 46.2373 10.7636C43.2642 7.79056 39.4745 5.98925 35.5691 5.69356C35.1919 5.66439 34.8167 5.65031 34.4466 5.65031Z" fill="white"/>
<path d="M38.34 40.5087C37.8592 40.5087 37.3754 40.4906 36.8856 40.4534C31.8346 40.0712 26.9375 37.7449 23.0965 33.9039C15.163 25.9705 14.2598 13.9639 21.0829 7.14084C27.9071 0.316813 39.913 1.21998 47.8465 9.15436C51.6875 12.9953 54.0129 17.8923 54.3961 22.9432C54.7793 28.0022 53.168 32.6095 49.86 35.9174C46.8719 38.9055 42.8227 40.5087 38.34 40.5087ZM32.6211 2.81007C28.3516 2.81007 24.2883 4.29155 21.261 7.31886C14.5354 14.0443 15.4386 25.8911 23.2745 33.7269C27.5832 38.0355 33.1059 40.2482 38.3229 40.2482C42.5923 40.2482 46.6557 38.7667 49.683 35.7394C52.9387 32.4838 54.5238 27.9458 54.1466 22.9623C53.7685 17.9708 51.4683 13.1301 47.6705 9.33237C43.3597 5.02273 37.8371 2.81007 32.6211 2.81007Z" fill="white"/>
<path d="M37.2336 45.2981C36.6724 45.2981 36.1061 45.277 35.5349 45.2337C29.632 44.7872 23.9092 42.0686 19.4204 37.5799C14.9317 33.0913 12.2131 27.3685 11.7665 21.4658C11.3189 15.559 13.1997 10.1792 17.0619 6.31713C20.924 2.45504 26.3039 0.575294 32.2108 1.02185C38.1137 1.4684 43.8365 4.18695 48.3252 8.67562C52.814 13.1643 55.5326 18.887 55.9791 24.7898C56.4267 30.6966 54.5459 36.0763 50.6838 39.9384C47.1947 43.4264 42.4686 45.2981 37.2336 45.2981ZM30.5322 1.1194C25.5104 1.1194 20.7299 2.86237 17.1685 6.42374C9.25811 14.334 10.3172 28.2616 19.528 37.4723C23.9916 41.9358 29.6803 44.6383 35.5469 45.0828C41.4096 45.5264 46.7472 43.6617 50.5772 39.8318C54.4071 36.0019 56.2718 30.6644 55.8283 24.8018C55.3837 18.9353 52.6812 13.2468 48.2176 8.78324C43.1536 3.71927 36.6633 1.1194 30.5322 1.1194Z" fill="white"/>
<path d="M36.1725 49.5745C35.5409 49.5745 34.9032 49.5504 34.2595 49.5021C27.6144 48.9992 21.1705 45.9387 16.1165 40.8838C11.0625 35.8299 8.00191 29.3861 7.49802 22.7411C6.99412 16.093 9.11127 10.0374 13.4572 5.69155C15.4416 3.70721 17.7921 2.17947 20.4413 1.15058L20.4453 1.14957C23.0452 0.386208 25.7517 0 28.4874 0C36.1031 0 43.2642 2.96597 48.6491 8.35076C54.035 13.7366 57 20.8965 57 28.5121C57 31.2477 56.6128 33.9532 55.8504 36.5541C54.8205 39.2082 53.2927 41.5577 51.3084 43.543C47.3838 47.4675 42.0643 49.5745 36.1725 49.5745ZM20.4765 1.24512C17.8403 2.26797 15.5029 3.78867 13.5286 5.76195C4.59838 14.692 5.79122 30.416 16.1879 40.8124C21.2248 45.8492 27.6466 48.8997 34.2676 49.4016C40.8866 49.9024 46.9131 47.7964 51.2379 43.4716C53.2123 41.4973 54.733 39.159 55.7559 36.5219C56.5152 33.9351 56.9004 31.2387 56.9004 28.5121C56.9004 12.8455 44.1543 0.0995685 28.4874 0.0995685C25.7618 0.0995685 23.0663 0.484773 20.4765 1.24512Z" fill="white"/>
<path d="M34.1228 52.7648C33.5605 52.7648 32.9953 52.7467 32.426 52.7105C28.9883 52.4932 25.5968 51.6293 22.3442 50.1428C18.9769 48.604 15.9083 46.4617 13.2219 43.7764C7.23652 37.7911 3.96676 29.8336 4.2524 21.9465C4.49177 15.3156 7.25462 9.3887 12.032 5.25606L12.034 5.25405C16.8617 1.83248 22.5514 0.0241371 28.4894 0.0241371C32.3355 0.0241371 36.0659 0.777446 39.5781 2.26294C42.9705 3.69815 46.017 5.7519 48.633 8.36786C51.249 10.9838 53.3038 14.0302 54.738 17.4226C56.2235 20.9347 56.9769 24.6651 56.9769 28.5111C56.9769 34.449 55.1685 40.1386 51.7469 44.9662C51.3979 45.3695 51.0308 45.7647 50.6546 46.1409C48.287 48.5084 45.4648 50.2786 42.2655 51.402C39.6857 52.3092 36.954 52.7648 34.1228 52.7648ZM12.0632 5.29428C7.29787 9.41787 4.54105 15.3317 4.30168 21.9475C4.01705 29.8216 7.28178 37.765 13.2581 43.7412C24.2099 54.6928 40.969 55.7539 50.6174 46.1057C50.9925 45.7306 51.3586 45.3363 51.7056 44.936C55.1202 40.1195 56.9256 34.439 56.9256 28.5121C56.9256 12.8314 44.1684 0.0744247 28.4874 0.0744247C22.5614 0.0744247 16.8818 1.87975 12.0632 5.29428Z" fill="white"/>
<path d="M31.0381 55.3315C29.7497 55.3315 28.4593 55.246 27.1719 55.073C24.053 54.6556 21.0387 53.7434 18.2125 52.3615C15.2887 50.9323 12.6254 49.0274 10.2981 46.7001C7.97073 44.3728 6.0658 41.7106 4.6366 38.7858C3.25467 35.9597 2.34244 32.9444 1.92504 29.8266C1.51268 26.7399 1.59515 23.6322 2.17146 20.5898C2.75682 17.5001 3.83601 14.5573 5.38087 11.8447C7.96972 8.26125 11.4024 5.28925 15.3098 3.24757C19.346 1.1375 23.9031 0.0231303 28.4884 0.0231303C32.3345 0.0231303 36.0649 0.77644 39.577 2.26194C42.9695 3.69714 46.016 5.75089 48.632 8.36685C51.248 10.9828 53.3028 14.0292 54.737 17.4216C56.2225 20.9337 56.9759 24.6641 56.9759 28.5101C56.9759 33.0953 55.8605 37.6523 53.7514 41.6884C51.7097 45.5948 48.7366 49.0274 45.1561 51.6152C42.4415 53.161 39.4996 54.2402 36.4089 54.8256C34.6357 55.1635 32.8394 55.3315 31.0381 55.3315ZM28.4884 0.0744247C19.3852 0.0744247 10.7627 4.48465 5.42412 11.8729C-0.958499 23.083 1.06008 37.3908 10.3353 46.6649C15.9897 52.3192 23.5179 55.2771 31.0713 55.2771C35.907 55.2771 40.7528 54.0662 45.1289 51.574C52.5153 46.2364 56.9256 37.6141 56.9256 28.5111C56.9256 12.8314 44.1684 0.0744247 28.4884 0.0744247Z" fill="white"/>
<path d="M29.9428 56.6862C26.8862 56.6862 23.8448 56.2356 20.9653 55.3435C16.3729 53.9214 12.3207 51.4774 8.92319 48.079C5.53375 44.6896 3.09274 40.6485 1.66857 36.0693C0.312795 31.7084 -0.0321846 26.9753 0.670849 22.379L0.662802 22.377L0.667831 22.3528C2.04272 16.1172 5.5438 10.4518 10.5264 6.3996C13.0116 4.37804 15.7926 2.80303 18.7918 1.71783C21.8946 0.594401 25.1573 0.0251438 28.4884 0.0251438C32.3345 0.0251438 36.0649 0.778453 39.577 2.26395C42.9695 3.69916 46.016 5.7529 48.632 8.36887C51.248 10.9848 53.3028 14.0312 54.737 17.4237C56.2225 20.9357 56.9759 24.6661 56.9759 28.5121C56.9759 31.8371 56.4086 35.0937 55.2892 38.1924C54.208 41.1866 52.638 43.9644 50.6224 46.4476C48.625 48.9097 46.2513 51.0087 43.5679 52.6863C40.8333 54.3961 37.8552 55.6171 34.7162 56.3181C33.1351 56.5635 31.5369 56.6862 29.9428 56.6862ZM0.722143 22.3388L0.727172 22.3398L0.723149 22.3629C-0.754327 31.9729 2.2479 41.3324 8.95839 48.0428C15.688 54.7723 25.0728 57.7694 34.7061 56.2668C47.58 53.3954 56.9256 41.7226 56.9256 28.5111C56.9256 12.8304 44.1684 0.0734179 28.4874 0.0734179C15.2515 0.0744237 3.57752 9.43597 0.722143 22.3388Z" fill="white"/>
<path d="M28.4884 57C24.6424 57 20.912 56.2467 17.3998 54.7612C14.0074 53.326 10.9609 51.2722 8.34487 48.6563C5.72887 46.0403 3.67408 42.9939 2.23985 39.6015C0.753322 36.0884 0 32.3581 0 28.5121C0 24.6661 0.753322 20.9357 2.23884 17.4237C3.67408 14.0312 5.72786 10.9848 8.34387 8.36887C10.9599 5.7529 14.0064 3.69815 17.3988 2.26395C20.911 0.778453 24.6414 0.0251438 28.4874 0.0251438C32.3335 0.0251438 36.0639 0.778453 39.576 2.26395C42.9685 3.69916 46.015 5.7529 48.631 8.36887C51.247 10.9848 53.3018 14.0312 54.736 17.4237C56.2215 20.9357 56.9749 24.6661 56.9749 28.5121C56.9749 32.3581 56.2215 36.0884 54.736 39.6005C53.3008 42.9929 51.247 46.0393 48.631 48.6553C46.015 51.2712 42.9685 53.326 39.576 54.7602C36.0649 56.2467 32.3345 57 28.4884 57ZM28.4884 0.0744247C12.8075 0.0744247 0.0502885 12.8314 0.0502885 28.5121C0.0502885 44.1928 12.8075 56.9497 28.4884 56.9497C44.1694 56.9497 56.9266 44.1928 56.9266 28.5121C56.9266 12.8314 44.1684 0.0744247 28.4884 0.0744247Z" fill="white"/>
<path d="M28.4884 57C24.6424 57 20.912 56.2467 17.3998 54.7612C14.0074 53.326 10.9609 51.2722 8.34487 48.6563C5.72887 46.0403 3.67408 42.9939 2.23985 39.6015C0.753322 36.0884 0 32.3581 0 28.5121C0 24.6661 0.753322 20.9357 2.23884 17.4237C3.67408 14.0312 5.72786 10.9848 8.34387 8.36887C10.9599 5.7529 14.0064 3.69815 17.3988 2.26395C20.911 0.778453 24.6414 0.0251438 28.4874 0.0251438C32.3335 0.0251438 36.0639 0.778453 39.576 2.26395C42.9685 3.69916 46.015 5.7529 48.631 8.36887C51.247 10.9848 53.3018 14.0312 54.736 17.4237C56.2215 20.9357 56.9749 24.6661 56.9749 28.5121C56.9749 32.3581 56.2215 36.0884 54.736 39.6005C53.3008 42.9929 51.247 46.0393 48.631 48.6553C46.015 51.2712 42.9685 53.326 39.576 54.7602C36.0649 56.2467 32.3345 57 28.4884 57ZM28.4884 0.0744247C12.8075 0.0744247 0.0502885 12.8314 0.0502885 28.5121C0.0502885 44.1928 12.8075 56.9497 28.4884 56.9497C44.1694 56.9497 56.9266 44.1928 56.9266 28.5121C56.9266 12.8314 44.1684 0.0744247 28.4884 0.0744247Z" fill="white"/>
<path d="M19.5322 39.0356C19.8484 38.7195 19.7535 38.1119 19.3202 37.6787C18.887 37.2455 18.2795 37.1506 17.9633 37.4668C17.6471 37.783 17.742 38.3905 18.1752 38.8237C18.6085 39.2569 19.216 39.3518 19.5322 39.0356Z" fill="white"/>
<path d="M39.0117 19.5562C39.3279 19.24 39.233 18.6325 38.7998 18.1993C38.3665 17.7661 37.759 17.6712 37.4428 17.9874C37.1266 18.3036 37.2215 18.9111 37.6548 19.3443C38.088 19.7775 38.6955 19.8724 39.0117 19.5562Z" fill="white"/>
<path d="M9.45122 49.6862C9.40697 49.6459 9.27018 49.5232 11.849 46.3591C13.5015 44.3305 15.8861 41.5255 18.7435 38.2478C21.2177 35.4095 24.2079 32.0453 27.882 27.9639C32.9701 22.3146 37.817 17.0606 41.5292 13.1693C43.3346 11.2775 44.7739 9.81111 45.8058 8.8114C47.2571 7.40636 47.5015 7.31182 47.5588 7.36412L47.5417 7.38323C47.4683 7.31786 46.7361 7.74932 41.5474 13.1874C37.834 17.0777 32.9882 22.3317 27.9011 27.982C24.226 32.0634 21.2368 35.4266 18.7626 38.2648C12.0924 45.9166 9.28829 49.5061 9.46832 49.6681L9.45122 49.6862Z" fill="white"/>
<path d="M12.1547 51.8385C11.6327 51.4734 12.5228 49.3543 13.3617 47.6405C14.5283 45.2589 16.388 42.0123 18.7415 38.2518C20.9391 34.7397 23.538 30.8313 26.2556 26.9501C30.6166 20.7225 34.9475 15.029 38.4516 10.9184C41.9597 6.80291 44.2217 4.76727 44.8211 5.18767L44.8071 5.20879C44.5164 5.00563 43.7792 5.42905 42.6748 6.4348C41.5886 7.42345 40.1745 8.93812 38.4707 10.9355C34.9676 15.045 30.6368 20.7376 26.2767 26.9652C23.5592 30.8464 20.9613 34.7538 18.7636 38.2659C13.8867 46.0584 11.3602 51.2521 12.1698 51.8184L12.1547 51.8385Z" fill="white"/>
<path d="M16.4584 54.3267C15.5552 53.9053 15.3058 52.1402 15.7393 49.2225C16.1597 46.3913 17.1977 42.5976 18.7415 38.2518C20.0872 34.4631 21.7518 30.4351 23.6899 26.2793C26.9033 19.3879 30.4225 13.1422 33.5998 8.69171C36.781 4.23623 39.2411 2.11208 40.5265 2.71151L40.5154 2.73464C37.8793 1.50561 30.3421 12.0731 23.712 26.2904C21.7749 30.4451 20.1104 34.4722 18.7647 38.2608C17.2218 42.6047 16.1838 46.3974 15.7634 49.2265C15.332 52.1322 15.5764 53.8882 16.4685 54.3036L16.4584 54.3267Z" fill="white"/>
<path d="M21.1171 56.0114C19.692 55.6292 18.7234 53.7132 18.3151 50.4707C17.9188 47.3227 18.0666 43.0985 18.7405 38.2548C19.2625 34.5013 20.0742 30.5598 21.1503 26.5408C23.1186 19.1958 25.7306 12.4955 28.5055 7.67188C29.8553 5.32647 31.1708 3.55232 32.415 2.40073C33.7054 1.2059 34.863 0.735208 35.8567 1.00073L35.8507 1.02486C34.866 0.761357 33.7164 1.23004 32.4331 2.41884C31.1909 3.56942 29.8774 5.34055 28.5287 7.68395C25.7548 12.5055 23.1428 19.2038 21.1755 26.5468C20.0983 30.5648 19.2877 34.5054 18.7657 38.2578C18.0918 43.0995 17.9449 47.3206 18.3402 50.4666C18.7465 53.6981 19.7091 55.607 21.1232 55.9862L21.1171 56.0114Z" fill="white"/>
<path d="M26.0163 56.8703C24.0781 56.7003 22.3633 54.8054 21.0588 51.3909C19.7855 48.0579 18.9839 43.5169 18.7405 38.2578C18.5866 34.9197 18.6721 31.3584 18.994 27.6723C19.6568 20.0969 21.267 13.0617 23.529 7.86196C24.6293 5.3325 25.8241 3.37631 27.0804 2.0457C28.3828 0.666815 29.6944 0.0241351 30.9797 0.136779L30.9777 0.161923C29.7004 0.0502846 28.3949 0.689946 27.0985 2.0628C25.8443 3.3914 24.6514 5.34557 23.5521 7.87202C21.2911 13.0698 19.6819 20.102 19.0191 27.6743C18.6973 31.3584 18.6118 34.9187 18.7657 38.2558C19.008 43.5119 19.8096 48.0508 21.0819 51.3819C22.3834 54.7873 24.0902 56.6772 26.0183 56.8451L26.0163 56.8703Z" fill="white"/>
<path d="M30.5885 56.8843C29.5123 56.8843 28.419 56.4901 27.3338 55.7086C26.1621 54.8658 25.0185 53.5865 23.9333 51.9069C22.8632 50.2494 21.8735 48.2399 20.9934 45.9337C20.1033 43.6014 19.345 41.0196 18.7395 38.2578C18.1179 35.4226 17.6845 32.5482 17.4149 29.4685C17.08 25.6396 17.0478 21.9003 17.3184 18.354C17.5799 14.9284 18.1129 11.8246 18.9004 9.13122C19.689 6.43681 20.6937 4.28752 21.8866 2.74269C23.1227 1.14153 24.5086 0.263508 26.0052 0.13276L26.0072 0.157904C24.5177 0.288652 23.1377 1.16265 21.9057 2.75777C20.7148 4.29959 19.7111 6.44687 18.9236 9.13726C17.3033 14.6739 16.7762 21.8932 17.439 29.4655C17.7086 32.5431 18.1411 35.4176 18.7626 38.2518C19.9625 43.7241 21.8051 48.5678 23.9524 51.8918C26.1772 55.3365 28.6031 57.0483 30.9667 56.8411L30.9687 56.8662C30.8439 56.8793 30.7172 56.8843 30.5885 56.8843Z" fill="white"/>
<path d="M34.4255 56.1924C33.4781 56.1924 32.4864 55.9601 31.4615 55.4964C29.9609 54.8165 28.4231 53.6569 26.8913 52.0487C25.3746 50.4566 23.9051 48.4692 22.5252 46.1439C21.1212 43.7784 19.8479 41.1252 18.7395 38.2588C17.9248 36.1528 17.2057 33.9411 16.6012 31.6862C15.6065 27.974 14.9558 24.2889 14.6661 20.7326C14.3865 17.2979 14.4559 14.1268 14.8693 11.3087C15.2837 8.48955 16.0229 6.16627 17.0669 4.40117C18.1481 2.57272 19.5119 1.42717 21.1182 0.996704L21.1252 1.02084C19.525 1.44929 18.1672 2.59082 17.089 4.41425C16.0471 6.17633 15.3088 8.4976 14.8944 11.3127C14.0426 17.1048 14.6581 24.3382 16.6254 31.6802C17.2298 33.9351 17.949 36.1457 18.7626 38.2508C20.9572 43.9272 23.8508 48.8212 26.9104 52.0326C30.0615 55.3405 33.1532 56.7053 35.8527 55.9822L35.8597 56.0063C35.3941 56.13 34.9153 56.1924 34.4255 56.1924Z" fill="white"/>
<path d="M37.7395 54.91C36.8574 54.91 35.9231 54.7552 34.9404 54.4444C32.9168 53.8047 30.7766 52.5375 28.579 50.6758C26.3813 48.8152 24.237 46.4557 22.2054 43.6627C20.1023 40.7712 18.2115 37.5387 16.5872 34.0558C14.9628 30.5729 13.7016 27.0467 12.8387 23.5768C12.0049 20.2247 11.5754 17.0656 11.5633 14.1861C11.5503 11.3067 11.9556 8.85163 12.7662 6.89041C13.6061 4.85879 14.8472 3.44873 16.4554 2.69843L16.4665 2.72157C14.8643 3.46884 13.6272 4.87488 12.7894 6.90046C11.9797 8.85866 11.5764 11.3097 11.5885 14.1861C11.6146 20.104 13.3979 27.1563 16.6103 34.0457C19.8227 40.9351 24.0791 46.8339 28.595 50.6577C30.7906 52.5164 32.9279 53.7826 34.9485 54.4213C37.0385 55.082 38.9112 55.0378 40.5134 54.2905L40.5245 54.3136C39.6696 54.7109 38.7382 54.91 37.7395 54.91Z" fill="white"/>
<path d="M40.4239 53.1148C38.2142 53.1148 35.6606 52.3866 32.9018 50.9414C28.066 48.4079 23.0351 43.9021 18.7365 38.2558C15.2223 33.6394 12.4384 28.6016 10.6833 23.6865C9.83844 21.3189 9.25409 19.0369 8.94733 16.9057C8.63755 14.7554 8.61643 12.7972 8.88296 11.0844C9.08713 9.77491 9.46128 8.61427 9.99534 7.63467C10.5465 6.62389 11.2727 5.79917 12.1537 5.18264L12.1678 5.20376C10.4228 6.42575 9.3265 8.40507 8.9081 11.0894C8.37203 14.5271 8.9946 18.88 10.7074 23.6794C12.4605 28.5925 15.2445 33.6273 18.7566 38.2417C23.0522 43.885 28.0801 48.3877 32.9128 50.9202C37.7707 53.4648 41.9939 53.7826 44.805 51.8143L44.8191 51.8355C43.5991 52.6904 42.1126 53.1148 40.4239 53.1148Z" fill="white"/>
<path d="M42.363 50.883C40.4018 50.883 38.2072 50.4646 35.8245 49.6359C33.0808 48.6814 30.2254 47.2311 27.3368 45.3242C24.3467 43.3499 21.4531 40.9713 18.7355 38.2538C16.0179 35.5362 13.6392 32.6427 11.6649 29.6526C9.75798 26.7651 8.30766 23.9087 7.35318 21.1651C6.39871 18.4204 5.98835 15.9261 6.1352 13.7516C6.28707 11.4988 7.03134 9.68841 8.34789 8.37087L8.36599 8.38898C5.76809 10.9868 5.41708 15.5218 7.37732 21.157C9.33857 26.7963 13.3788 32.862 18.7536 38.2357C24.1284 43.6104 30.1942 47.6505 35.8326 49.6117C41.4689 51.572 46.0029 51.2209 48.6008 48.6231L48.6189 48.6412C47.3024 49.9577 45.492 50.703 43.2381 50.8539C42.9524 50.874 42.6607 50.883 42.363 50.883Z" fill="white"/>
<path d="M7.38135 47.5952C7.35821 47.5952 7.35017 47.5862 7.34313 47.5791L7.36224 47.562C7.51008 47.727 10.5787 45.3645 18.7486 38.2427C22.5272 34.9489 25.8966 31.9678 29.0486 29.1296C34.6991 24.0425 39.9532 19.1958 43.8435 15.4836C49.2807 10.2939 49.7142 9.56269 49.6478 9.48927L49.6669 9.47217C49.7182 9.5295 49.6247 9.7739 48.2196 11.2252C47.2199 12.2581 45.7535 13.6963 43.8616 15.5017C39.9713 19.2149 34.7162 24.0616 29.0668 29.1487C25.9137 31.9869 22.5443 34.968 18.7657 38.2628C15.4345 41.1665 12.6335 43.5541 10.6652 45.1673C8.01398 47.3397 7.50103 47.5952 7.38135 47.5952Z" fill="white"/>
<path d="M5.60314 44.9964C5.3869 44.9964 5.24107 44.9451 5.16765 44.8405L5.18776 44.8264C5.46938 45.2287 6.91165 44.8103 9.35869 43.6155C11.7504 42.4478 14.998 40.5891 18.7506 38.2417C22.1692 36.1025 25.968 33.572 30.0413 30.7197C36.2691 26.3598 41.9617 22.029 46.0713 18.526C48.0698 16.8232 49.5835 15.4081 50.5721 14.3219C51.5769 13.2176 52.0013 12.4804 51.7982 12.1897L51.8183 12.1756C52.2377 12.7751 50.203 15.037 46.0874 18.5451C41.9768 22.0481 36.2832 26.3799 30.0554 30.7408C25.981 33.5931 22.1823 36.1246 18.7636 38.2638C11.9405 42.5333 7.10074 44.9964 5.60314 44.9964Z" fill="white"/>
<path d="M5.35975 41.4752C3.88831 41.4752 2.97909 41.1624 2.69144 40.5469L2.71457 40.5358C3.13096 41.43 4.88502 41.6743 7.78466 41.2439C10.6109 40.8245 14.4036 39.7855 18.7536 38.2387C22.5675 36.8829 26.5966 35.2184 30.7283 33.2914C44.9458 26.6615 55.5135 19.1234 54.2844 16.4883L54.3076 16.4772C54.907 17.7636 52.7838 20.2227 48.3272 23.4039C43.8767 26.581 37.6299 30.1012 30.7393 33.3135C26.6066 35.2406 22.5775 36.9051 18.7626 38.2618C14.4117 39.8087 10.6169 40.8486 7.78868 41.268C6.86036 41.4068 6.0487 41.4752 5.35975 41.4752Z" fill="white"/>
<path d="M10.3956 38.9146C8.97147 38.9146 7.67101 38.8411 6.51538 38.6953C3.2778 38.284 1.36483 37.3104 0.980626 35.8782L1.00476 35.8722C1.38595 37.2933 3.29188 38.2618 6.51839 38.6712C9.66847 39.0715 13.8997 38.9226 18.7546 38.2417C22.4548 37.7227 26.3874 36.9081 30.4447 35.8209C37.7878 33.8536 44.4862 31.2417 49.3079 28.4678C51.6513 27.1191 53.4225 25.8056 54.5731 24.5635C55.7619 23.2801 56.2306 22.1296 55.9671 21.1459L55.9912 21.1399C56.2577 22.1336 55.786 23.2912 54.5912 24.5816C53.4396 25.8257 51.6654 27.1412 49.3199 28.491C44.4973 31.2658 37.7958 33.8788 30.4507 35.846C26.3924 36.9332 22.4588 37.7479 18.7576 38.2669C15.682 38.6963 12.8558 38.9146 10.3956 38.9146Z" fill="white"/>
<path d="M22.14 38.3403C20.9995 38.3403 19.871 38.3151 18.7566 38.2648C13.4773 38.0275 8.9252 37.2309 5.59309 35.9607C2.1795 34.6602 0.286644 32.9444 0.115664 31.0003L0.140808 30.9983C0.309777 32.9324 2.19861 34.6411 5.60113 35.9375C8.93124 37.2068 13.4803 38.0034 18.7576 38.2397C22.1692 38.3926 25.7195 38.3111 29.3122 37.9963C36.8846 37.3335 43.9169 35.7243 49.1148 33.4634C51.6413 32.3641 53.5955 31.1713 54.9241 29.9171C56.297 28.6207 56.9366 27.3152 56.825 26.0379L56.8501 26.0359C56.9628 27.3213 56.3201 28.6328 54.9412 29.9352C53.6106 31.1914 51.6543 32.3862 49.1248 33.4865C43.925 35.7485 36.8896 37.3587 29.3142 38.0215C26.8943 38.2337 24.4925 38.3403 22.14 38.3403Z" fill="white"/>
<path d="M33.7667 39.861C31.721 39.861 29.63 39.7684 27.5118 39.5834C24.5177 39.3219 21.5718 38.8784 18.7536 38.2659C15.9787 37.6624 13.3868 36.9061 11.0484 36.017C8.73712 35.138 6.72558 34.1493 5.06707 33.0782C3.38844 31.994 2.11011 30.8484 1.26828 29.6747C0.396273 28.4598 0.00804616 27.2328 0.113652 26.0289L0.138796 26.0309C-0.0693981 28.4045 1.64041 30.8344 5.08115 33.0571C8.45551 35.2365 13.1856 37.0288 18.7596 38.2407C21.5758 38.8532 24.5217 39.2957 27.5148 39.5582C35.0873 40.221 42.3067 39.693 47.8435 38.0738C50.5349 37.2863 52.6812 36.2835 54.2231 35.0917C55.8182 33.8597 56.6932 32.4798 56.823 30.9902L56.8481 30.9923C56.7174 32.4888 55.8393 33.8747 54.2382 35.1118C52.6933 36.3046 50.544 37.3094 47.8495 38.0979C45.1561 38.8864 42.0522 39.4185 38.6266 39.6799C37.0425 39.7996 35.4192 39.861 33.7667 39.861Z" fill="white"/>
<path d="M40.258 42.5001C38.9686 42.5001 37.6309 42.4438 36.25 42.3321C32.6936 42.0435 29.0084 41.3917 25.2961 40.397C23.1045 39.8097 20.9029 39.0926 18.7536 38.2638C15.8771 37.1565 13.2168 35.8822 10.8462 34.4792C8.51585 33.0993 6.52544 31.6309 4.9323 30.1142C3.32306 28.5825 2.16341 27.0447 1.48351 25.5431C0.780478 23.9892 0.610502 22.5077 0.976603 21.1399L1.00074 21.1459C0.275581 23.8524 1.64041 26.9471 4.94939 30.0961C8.16383 33.1556 13.069 36.0482 18.7626 38.2407C20.912 39.0684 23.1116 39.7856 25.3032 40.3729C32.6453 42.3402 39.8788 42.9547 45.671 42.1028C48.4862 41.6894 50.8075 40.9502 52.5696 39.9083C54.393 38.8301 55.5346 37.4723 55.9631 35.8722L55.9872 35.8782C55.5567 37.4844 54.4111 38.8482 52.5827 39.9294C50.8175 40.9733 48.4932 41.7126 45.675 42.1269C43.9873 42.3764 42.176 42.5001 40.258 42.5001Z" fill="white"/>
<path d="M42.9363 45.4349C42.8921 45.4349 42.8488 45.4349 42.8046 45.4349C39.925 45.4218 36.7659 44.9933 33.4137 44.1596C29.9438 43.2966 26.4176 42.0354 22.9346 40.4111C19.4516 38.7868 16.219 36.897 13.3275 34.793C10.5344 32.7614 8.17389 30.6171 6.31422 28.4195C4.45355 26.222 3.18527 24.0807 2.5456 22.0582C1.8828 19.9622 1.92706 18.0834 2.67736 16.4752L2.70049 16.4863C1.95321 18.0885 1.90996 19.9612 2.56974 22.0511C3.20841 24.0717 4.47467 26.2089 6.33333 28.4045C10.1573 32.9213 16.0571 37.1776 22.9456 40.389C29.8342 43.6014 36.8876 45.3846 42.8056 45.4107C42.8488 45.4107 42.8931 45.4107 42.9363 45.4107C45.7565 45.4107 48.1633 45.0064 50.0914 44.2098C52.117 43.3721 53.5231 42.135 54.2703 40.5328L54.2935 40.5439C53.5432 42.1521 52.1331 43.3932 50.1014 44.233C48.1693 45.0305 45.7595 45.4349 42.9363 45.4349Z" fill="white"/>
<path d="M43.3829 48.2962C42.3469 48.2962 41.2476 48.2127 40.092 48.0468C37.9608 47.74 35.6787 47.1557 33.3111 46.3109C28.3959 44.5568 23.358 41.7719 18.7415 38.2578C13.0951 33.9592 8.59028 28.9295 6.05574 24.0928C3.50611 19.227 3.1893 14.9938 5.16262 12.1746L5.18273 12.1887C3.21444 14.9998 3.53226 19.2229 6.07686 24.0807C8.60939 28.9134 13.1112 33.9411 18.7556 38.2367C23.3701 41.7488 28.405 44.5317 33.3181 46.2857C38.1177 47.9985 42.4706 48.6211 45.9084 48.085C48.5918 47.6666 50.5721 46.5704 51.7941 44.8254L51.8142 44.8394C51.1977 45.7205 50.372 46.4466 49.3622 46.9978C48.3836 47.5319 47.2229 47.906 45.9124 48.1102C45.1209 48.2339 44.275 48.2962 43.3829 48.2962Z" fill="white"/>
<path d="M9.47335 49.7344C9.4482 49.7344 9.43613 49.7234 9.42608 49.7143L9.49346 49.6399C9.48843 49.6359 9.4834 49.6349 9.4824 49.6339C9.4834 49.6339 9.48441 49.6339 9.48542 49.6339C9.99333 49.6339 17.6161 41.7769 29.0818 29.0441C31.9201 25.8911 34.9012 22.5228 38.1951 18.7442C45.1319 10.7867 47.5558 7.66685 47.5106 7.40033C47.5106 7.40133 47.5126 7.40636 47.5176 7.41038L47.585 7.33596C47.6564 7.40033 47.7902 7.52001 45.1762 10.7082C43.5629 12.6765 41.1752 15.4785 38.2706 18.8096C34.9767 22.5882 31.9956 25.9575 29.1563 29.1105C24.0691 34.7608 19.2223 40.0149 15.508 43.9061C10.4469 49.2105 9.64735 49.7344 9.47335 49.7344Z" fill="white"/>
<path d="M12.3458 51.93C12.2634 51.93 12.1919 51.9109 12.1336 51.8697L12.1909 51.7872C12.7522 52.1804 15.0433 50.0955 18.477 46.0665C21.9791 41.958 26.3089 36.2664 30.6689 30.0398C33.5203 25.9675 36.0508 22.1688 38.1901 18.7502C42.9816 11.0924 45.5704 5.78911 44.7849 5.23897L44.8423 5.15649C45.7012 5.75793 43.2461 10.8601 38.2746 18.8035C36.1343 22.2231 33.6028 26.0228 30.7504 30.0971C26.3884 36.3258 22.0565 42.0203 18.5524 46.1318C16.2452 48.8403 13.3838 51.93 12.3458 51.93Z" fill="white"/>
<path d="M16.9241 54.4625C16.7491 54.4625 16.5882 54.4283 16.4423 54.3609L16.4846 54.2694C16.6153 54.3307 16.7612 54.3609 16.9201 54.3609C18.2587 54.3609 20.5489 52.2116 23.3339 48.3103C26.5091 43.8629 30.0263 37.6202 33.2387 30.7318C35.1647 26.6021 36.8283 22.5741 38.1841 18.7613C41.3472 9.86542 42.2564 3.58752 40.5003 2.76884L40.5426 2.67731C42.3771 3.5322 41.5091 9.70853 38.2786 18.7945C36.9218 22.6103 35.2563 26.6414 33.3292 30.774C30.1148 37.6674 26.5946 43.9152 23.4153 48.3676C20.5811 52.3404 18.311 54.4625 16.9241 54.4625Z" fill="white"/>
<path d="M21.6703 56.12C21.4772 56.12 21.2901 56.0958 21.1081 56.0466L21.1342 55.949C21.3092 55.9963 21.4893 56.0194 21.6733 56.0194C25.7135 56.0204 31.8859 44.928 35.7632 30.4552C36.8494 26.4 37.6641 22.4685 38.1831 18.7704C39.5861 8.77016 38.6668 1.81941 35.8416 1.06207L35.8678 0.964519C37.3161 1.35274 38.2997 3.27775 38.7131 6.53035C39.1134 9.6864 38.9655 13.9226 38.2836 18.7834C37.7636 22.4866 36.949 26.4221 35.8617 30.4803C33.8924 37.8284 31.2794 44.5317 28.5025 49.3583C25.97 53.7575 23.5722 56.12 21.6703 56.12Z" fill="white"/>
<path d="M26.3029 56.9205C26.2063 56.9205 26.1098 56.9165 26.0132 56.9075L26.0223 56.8069C26.1158 56.8149 26.2094 56.819 26.3029 56.819C31.4192 56.82 36.599 44.6564 37.9407 29.3287C38.2545 25.7382 38.3369 22.1879 38.1831 18.7784C37.9467 13.5052 37.1511 8.96025 35.8829 5.63423C34.5914 2.24585 32.8937 0.366097 30.9747 0.198136L30.9837 0.0975612C34.9244 0.442534 37.7898 7.77346 38.2836 18.7734C38.4365 22.1869 38.355 25.7412 38.0402 29.3368C37.3774 36.9161 35.7652 43.9554 33.5022 49.1592C31.3167 54.1829 28.7721 56.9205 26.3029 56.9205Z" fill="white"/>
<path d="M30.9747 56.9055L30.9656 56.8049C33.8975 56.5484 36.4018 53.3692 38.0161 47.8517C39.6354 42.319 40.1614 35.1048 39.4996 27.5375C39.2381 24.5464 38.7946 21.6026 38.1831 18.7875C36.9721 13.2176 35.1808 8.49157 33.0043 5.12129C30.7896 1.69268 28.3718 -0.0100548 26.0132 0.196124L26.0042 0.0955492C30.8289 -0.325861 35.7622 7.17605 38.2816 18.7653C38.8941 21.5845 39.3377 24.5323 39.6002 27.5274C40.263 35.1068 39.735 42.3351 38.1126 47.8788C36.4863 53.4396 33.9518 56.645 30.9747 56.9055Z" fill="white"/>
<path d="M35.8688 56.0415L35.8426 55.944C42.364 54.197 44.3705 40.4634 40.3163 25.3309C39.7299 23.1414 39.0128 20.9428 38.1851 18.7945C35.9935 13.106 33.1039 8.20392 30.0484 4.99356C26.9094 1.6957 23.8277 0.33391 21.1353 1.05604L21.1091 0.958485C26.6137 -0.515947 33.6742 6.80291 38.2786 18.7583C39.1074 20.9096 39.8255 23.1122 40.4128 25.3047C42.3821 32.6548 42.9977 39.8972 42.1448 45.6974C41.2909 51.5126 39.0621 55.1866 35.8688 56.0415Z" fill="white"/>
<path d="M40.5396 54.3468L40.4973 54.2553C43.6544 52.7829 45.3793 48.7237 45.3532 42.8249C45.327 36.9131 43.5448 29.8658 40.3344 22.9814C33.7134 8.78324 23.013 -0.290658 16.4816 2.75476L16.4393 2.66323C19.6346 1.17371 23.8901 2.46711 28.4241 6.30506C32.947 10.135 37.2095 16.0418 40.4259 22.9382C43.6424 29.8346 45.4276 36.897 45.4538 42.8239C45.4789 48.7649 43.7339 52.8573 40.5396 54.3468Z" fill="white"/>
<path d="M44.8423 51.8656L44.7849 51.7832C46.5209 50.5672 47.6121 48.5959 48.0295 45.9226C48.5646 42.492 47.943 38.1442 46.2322 33.3518C44.4802 28.4427 41.6982 23.4109 38.1891 18.7995C33.8965 13.1603 28.8736 8.66154 24.0449 6.13208C19.2001 3.59356 14.991 3.27574 12.1919 5.23494L12.1346 5.15247C14.9659 3.17013 19.2122 3.48594 24.0922 6.04256C28.933 8.57907 33.9679 13.0879 38.2695 18.7382C41.7857 23.3576 44.5717 28.3984 46.3278 33.3176C48.0446 38.1261 48.6672 42.49 48.1301 45.9377C47.7067 48.6402 46.6013 50.6336 44.8423 51.8656Z" fill="white"/>
<path d="M48.6461 48.6684L48.5747 48.5969C51.1615 46.0102 51.5095 41.4893 49.5543 35.8681C47.595 30.2339 43.5579 24.1743 38.1871 18.8035C27.1095 7.72518 13.7438 3.06553 8.39315 8.41613L8.32174 8.34473C10.9377 5.72877 15.4949 5.37273 21.1554 7.34098C26.8028 9.30522 32.8776 13.3504 38.2585 18.7321C43.6394 24.1129 47.6856 30.1866 49.6498 35.8349C51.6181 41.4953 51.2621 46.0524 48.6461 48.6684Z" fill="white"/>
<path d="M7.31597 47.6043C7.24456 47.5248 7.05447 47.3136 13.1233 41.5225C17.0146 37.8092 22.2688 32.9625 27.9192 27.8744C32.0016 24.1984 35.3659 21.2093 38.2032 18.7352C41.482 15.8768 44.2871 13.4932 46.3157 11.8397C49.508 9.23884 49.6297 9.37361 49.6951 9.44602L49.6207 9.51341C49.6247 9.51844 49.6297 9.51945 49.6307 9.52045C49.3401 9.47017 45.7133 12.3225 38.2695 18.8116C35.4323 21.2847 32.069 24.2738 27.9866 27.9499C15.2284 39.4376 7.36525 47.0672 7.39643 47.549C7.39643 47.5479 7.39543 47.5429 7.3904 47.5379L7.31597 47.6043Z" fill="white"/>
<path d="M5.13647 44.8626C4.58229 44.0711 7.95061 40.9351 10.8744 38.4429C14.986 34.9388 20.6796 30.6071 26.9094 26.2451C30.7916 23.5266 34.7001 20.9287 38.2132 18.7301C46.1558 13.7597 51.254 11.3016 51.8515 12.1535L51.769 12.2108C51.2239 11.4314 45.9235 14.0242 38.2665 18.8146C34.7554 21.0122 30.848 23.609 26.9677 26.3266C20.741 30.6865 15.0493 35.0163 10.9408 38.5183C6.91266 41.9519 4.8277 44.243 5.21995 44.8043L5.13647 44.8626Z" fill="white"/>
<path d="M2.65724 40.563C2.04875 39.2585 4.17696 36.7824 8.64962 33.5901C13.1022 30.4119 19.351 26.8908 26.2436 23.6764C30.4004 21.7383 34.4295 20.0728 38.2193 18.7261C47.3084 15.4976 53.4858 14.6297 54.3407 16.4632L54.2492 16.5054C53.4315 14.7514 47.1515 15.6596 38.2524 18.8206C34.4657 20.1653 30.4396 21.8299 26.2858 23.7669C19.3983 26.9783 13.1555 30.4964 8.70796 33.6716C4.34392 36.7874 2.17146 39.2837 2.74877 40.5208L2.65724 40.563Z" fill="white"/>
<path d="M0.944418 35.8873C0.413371 33.9069 2.789 31.2809 7.63279 28.494C12.4585 25.7171 19.1629 23.1031 26.5111 21.1349C30.5322 20.0577 34.4748 19.2461 38.2303 18.7241C43.0771 18.0492 47.3044 17.9024 50.4565 18.2987C53.7162 18.709 55.6422 19.6866 56.0284 21.1278L55.9309 21.154C55.1785 18.3479 48.2357 17.4327 38.2434 18.8237C34.4919 19.3456 30.5533 20.1563 26.5362 21.2324C19.1971 23.1987 12.5007 25.8086 7.68207 28.5815C2.88153 31.3443 0.523 33.9291 1.04097 35.8611L0.944418 35.8873Z" fill="white"/>
<path d="M0.0784501 31.0033C-0.145837 28.4447 2.60595 25.7855 7.8259 23.5145C13.0297 21.2515 20.0691 19.6393 27.6486 18.9765C31.3358 18.6537 34.8982 18.5682 38.2394 18.7231C43.5026 18.9665 48.0476 19.7681 51.3848 21.0434C54.8145 22.3538 56.7174 24.0787 56.8884 26.0329L56.7878 26.0419C56.6208 24.129 54.739 22.4333 51.3486 21.1379C48.0215 19.8666 43.4865 19.0671 38.2343 18.8237C34.8982 18.6698 31.3398 18.7553 27.6577 19.0771C12.0501 20.4429 -0.276587 25.7885 0.179027 30.9943L0.0784501 31.0033Z" fill="white"/>
<path d="M56.8863 30.9953L56.7858 30.9862C56.9909 28.6368 55.2862 26.224 51.8535 24.0073C48.5334 21.863 43.6937 20.0215 38.2253 18.8227C35.392 18.2021 32.5196 17.7686 29.4439 17.5001C21.8765 16.8383 14.6611 17.3643 9.12937 18.9836C3.61273 20.5978 0.432481 23.1021 0.17601 26.0339L0.0754327 26.0248C0.335927 23.0488 3.54132 20.5133 9.10021 18.887C14.644 17.2647 21.8725 16.7367 29.452 17.3995C32.5326 17.6691 35.4091 18.1025 38.2464 18.7241C43.7258 19.925 48.5777 21.7715 51.9078 23.9228C55.3737 26.1606 57.0945 28.6066 56.8863 30.9953Z" fill="white"/>
<path d="M56.0224 35.8893L55.9248 35.8631C56.644 33.1778 55.2821 30.0981 51.9852 26.9572C48.7778 23.9017 43.8878 21.0112 38.2162 18.8176C36.1122 18.004 33.9035 17.2859 31.6496 16.6814C24.3125 14.7152 17.084 14.1007 11.2968 14.9515C5.52369 15.8004 1.87978 18.003 1.03494 21.154L0.937378 21.1278C1.79329 17.9356 5.46636 15.7058 11.2817 14.8509C17.082 13.9981 24.3245 14.6136 31.6747 16.5828C33.9317 17.1873 36.1444 17.9074 38.2514 18.7221C50.1869 23.3385 57.4938 30.3969 56.0224 35.8893Z" fill="white"/>
<path d="M54.3267 40.559L54.2351 40.5167C57.2806 33.9854 48.2066 23.2852 34.0081 16.6643C19.8096 10.0434 5.77915 9.97002 2.73368 16.5014L2.64216 16.4591C4.12064 13.288 8.16384 11.545 14.0325 11.545C14.0768 11.545 14.12 11.545 14.1643 11.545C20.0913 11.5712 27.1528 13.3564 34.0503 16.5728C40.9469 19.7892 46.8548 24.0506 50.6838 28.5744C54.5238 33.1084 55.8172 37.3637 54.3267 40.559Z" fill="white"/>
<path d="M51.8464 44.8616L51.764 44.8042C53.7242 42.0052 53.4054 37.7962 50.8668 32.9515C48.3373 28.1239 43.8385 23.1001 38.1991 18.8076C33.5877 15.2975 28.5558 12.5166 23.6467 10.7646C18.8532 9.05378 14.5062 8.43223 11.0755 8.96729C8.4022 9.38367 6.43089 10.4759 5.21492 12.2118L5.13244 12.1545C6.36451 10.3955 8.35895 9.29013 11.0594 8.86872C14.5072 8.33165 18.8713 8.95421 23.6798 10.671C28.5991 12.4271 33.64 15.213 38.2595 18.7291C43.9099 23.0307 48.4188 28.0655 50.9553 32.9062C53.513 37.7841 53.8288 42.0304 51.8464 44.8616Z" fill="white"/>
</svg>
